<svg width="35" height="34" viewBox="0 0 35 34" fill="none" xmlns="http://www.w3.org/2000/svg">
<path d="M15.7922 8.27393C15.7922 7.42757 16.4432 6.71143 17.3547 6.71143C18.201 6.71143 18.9172 7.42757 18.9172 8.27393V16.3468L24.451 19.9927C25.1672 20.5135 25.3625 21.4901 24.8416 22.2062C24.3859 22.9224 23.4093 23.1177 22.6932 22.5968L16.4432 18.4302C16.0526 18.1698 15.7922 17.6489 15.7922 17.1281V8.27393ZM17.3547 0.461426C26.5343 0.461426 34.0213 7.9484 34.0213 17.1281C34.0213 26.3729 26.5343 33.7948 17.3547 33.7948C8.10986 33.7948 0.687988 26.3729 0.687988 17.1281C0.687988 7.9484 8.10986 0.461426 17.3547 0.461426ZM3.81299 17.1281C3.81299 24.6151 9.86768 30.6698 17.3547 30.6698C24.7765 30.6698 30.8963 24.6151 30.8963 17.1281C30.8963 9.70622 24.7765 3.58643 17.3547 3.58643C9.86768 3.58643 3.81299 9.70622 3.81299 17.1281Z" fill="#C6C9A5"/>
</svg>
