<svg width="43" height="34" viewBox="0 0 43 34" fill="none" xmlns="http://www.w3.org/2000/svg">
<path d="M23.4381 3.62207H8.85482C8.26888 3.62207 7.81315 4.1429 7.81315 4.66374V6.74707H16.1465C16.6673 6.74707 17.1882 7.2679 17.1882 7.78874C17.1882 8.37467 16.6673 8.8304 16.1465 8.8304H1.56315C0.977214 8.8304 0.521484 8.37467 0.521484 7.78874C0.521484 7.2679 0.977214 6.74707 1.56315 6.74707H4.68815V4.66374C4.68815 2.38509 6.51107 0.49707 8.85482 0.49707H23.4381C25.7168 0.49707 27.6048 2.38509 27.6048 4.66374V6.74707H30.3392C31.3158 6.74707 32.2272 7.13769 32.9434 7.85384L38.998 13.9085C39.7142 14.6247 40.1048 15.5361 40.1048 16.5127V24.4554H40.6256C41.472 24.4554 42.1881 25.1715 42.1881 26.0179C42.1881 26.9294 41.472 27.5804 40.6256 27.5804H38.0215C38.0215 31.0309 35.222 33.8304 31.7715 33.8304C28.321 33.8304 25.5215 31.0309 25.5215 27.5804H17.1882C17.1882 31.0309 14.3887 33.8304 10.9382 33.8304C7.48763 33.8304 4.68815 31.0309 4.68815 27.5804V19.2471H7.81315V22.1768C8.72461 21.6559 9.76628 21.3304 10.9382 21.3304C13.2168 21.3304 15.235 22.6325 16.3418 24.4554H23.4381C23.959 24.4554 24.4798 23.9997 24.4798 23.4137V4.66374C24.4798 4.1429 23.959 3.62207 23.4381 3.62207ZM36.7845 16.1221L30.7298 10.0674C30.5996 9.93717 30.4694 9.87207 30.3392 9.87207H27.6048V16.1221H36.8496H36.7845ZM14.0632 27.5804C14.0632 26.4736 13.4121 25.4971 12.5007 24.9111C11.5241 24.3252 10.2871 24.3252 9.37565 24.9111C8.39909 25.4971 7.81315 26.4736 7.81315 27.5804C7.81315 28.7523 8.39909 29.7288 9.37565 30.3148C10.2871 30.9007 11.5241 30.9007 12.5007 30.3148C13.4121 29.7288 14.0632 28.7523 14.0632 27.5804ZM31.7715 30.7054C32.8783 30.7054 33.8548 30.1195 34.4408 29.1429C35.0267 28.2314 35.0267 26.9945 34.4408 26.0179C33.8548 25.1064 32.8783 24.4554 31.7715 24.4554C30.5996 24.4554 29.623 25.1064 29.0371 26.0179C28.4512 26.9945 28.4512 28.2314 29.0371 29.1429C29.623 30.1195 30.5996 30.7054 31.7715 30.7054ZM3.64648 10.9137H18.2298C18.7506 10.9137 19.2715 11.4346 19.2715 11.9554C19.2715 12.5413 18.7506 12.9971 18.2298 12.9971H3.64648C3.06055 12.9971 2.60482 12.5413 2.60482 11.9554C2.60482 11.4346 3.06055 10.9137 3.64648 10.9137ZM1.56315 15.0804H16.1465C16.6673 15.0804 17.1882 15.6012 17.1882 16.1221C17.1882 16.708 16.6673 17.1637 16.1465 17.1637H1.56315C0.977214 17.1637 0.521484 16.708 0.521484 16.1221C0.521484 15.6012 0.977214 15.0804 1.56315 15.0804Z" fill="#B7D1D1"/>
</svg>
