<svg width="35" height="30" viewBox="0 0 35 30" fill="none" xmlns="http://www.w3.org/2000/svg">
<path d="M6.41715 0.615723H30.3755C31.2218 0.615723 31.938 1.33187 31.938 2.17822C31.938 3.08968 31.2218 3.74072 30.3755 3.74072H6.41715C4.91976 3.74072 3.81299 4.9126 3.81299 6.34489V24.0532C3.81299 25.5506 4.91976 26.6574 6.41715 26.6574H28.2922C29.7244 26.6574 30.8963 25.5506 30.8963 24.0532V12.5949C30.8963 11.1626 29.7244 9.99072 28.2922 9.99072H8.50049C7.58903 9.99072 6.93799 9.33968 6.93799 8.42822C6.93799 7.58187 7.58903 6.86572 8.50049 6.86572H28.2922C31.4172 6.86572 34.0213 9.46989 34.0213 12.5949V24.0532C34.0213 27.2433 31.4172 29.7824 28.2922 29.7824H6.41715C3.22705 29.7824 0.687988 27.2433 0.687988 24.0532V6.34489C0.687988 3.21989 3.22705 0.615723 6.41715 0.615723ZM25.688 20.4074C24.5161 20.4074 23.6047 19.4959 23.6047 18.3241C23.6047 17.2173 24.5161 16.2407 25.688 16.2407C26.7948 16.2407 27.7713 17.2173 27.7713 18.3241C27.7713 19.4959 26.7948 20.4074 25.688 20.4074Z" fill="#D0C9B2"/>
</svg>
